<svg width="48" height="48" viewBox="0 0 48 48" fill="none" xmlns="http://www.w3.org/2000/svg">
<mask id="path-1-inside-1_1_178" fill="white">
<path d="M0 24C0 10.7452 10.7452 0 24 0C37.2548 0 48 10.7452 48 24C48 37.2548 37.2548 48 24 48C10.7452 48 0 37.2548 0 24Z"/>
</mask>
<path d="M0 24C0 10.7452 10.7452 0 24 0C37.2548 0 48 10.7452 48 24C48 37.2548 37.2548 48 24 48C10.7452 48 0 37.2548 0 24Z" fill="white"/>
<path d="M24 48V46C11.8497 46 2 36.1503 2 24H0H-2C-2 38.3594 9.6406 50 24 50V48ZM48 24H46C46 36.1503 36.1503 46 24 46V48V50C38.3594 50 50 38.3594 50 24H48ZM24 0V2C36.1503 2 46 11.8497 46 24H48H50C50 9.6406 38.3594 -2 24 -2V0ZM24 0V-2C9.6406 -2 -2 9.6406 -2 24H0H2C2 11.8497 11.8497 2 24 2V0Z" fill="#2D5A27" mask="url(#path-1-inside-1_1_178)"/>
<path d="M18.1667 24H29.8334" stroke="#2D5A27" stroke-width="1.66667" stroke-linecap="round" stroke-linejoin="round"/>
</svg>
